<svg xmlns="http://www.w3.org/2000/svg" xmlns:xlink="http://www.w3.org/1999/xlink" width="32" height="32" viewBox="0 0 32 32"><g transform="translate(0 0) scale(1.0000)"><defs><linearGradient id="ah2" x1="0" x2=".5" y1="0" y2="1"><stop offset="0" stop-color="#e5cffc"/><stop offset="1" stop-color="#a987ea"/></linearGradient></defs><g stroke="#11111b" stroke-linecap="round" stroke-width="3.4"><line x1="12.5" x2="9" y1="9" y2="3.6"/><line x1="19.5" x2="23" y1="9" y2="3.6"/></g><g stroke="#7f849c" stroke-linecap="round" stroke-width="1.4"><line x1="12.5" x2="9" y1="9" y2="3.6"/><line x1="19.5" x2="23" y1="9" y2="3.6"/></g><g stroke="#11111b" stroke-width="1.2"><circle cx="8.6" cy="3.2" r="2.3" fill="#f9e2af"/><circle cx="23.4" cy="3.2" r="2.3" fill="#89dceb"/></g><rect width="28.5" height="22.5" x="1.75" y="8.75" fill="url(#ah2)" stroke="#11111b" stroke-width="1.5" rx="6.5"/><rect width="23" height="16.5" x="4.5" y="11.5" fill="#11111b" rx="3"/><rect width="9.75" height="8" x="5.75" y="12.75" fill="#262637" stroke="#74c7ec" stroke-width="1" rx="1.4"/><rect width="10.25" height="9" x="16.5" y="12.25" fill="#262637" rx="1.6"/><rect width="21.5" height="4.75" x="5.25" y="22.25" fill="#262637" rx="1.4"/><g fill="#89dceb"><rect width="2.2" height="4.5" x="9.6" y="14.5" rx=".7"/><rect width="2.2" height="4.5" x="20.5" y="14.5" rx=".7"/></g><g fill="none" stroke="#a6e3a1" stroke-linecap="round" stroke-linejoin="round" stroke-width="1.1"><polyline points="13.6 23.3 15 24.6 13.6 25.9"/><line x1="16.4" x2="18.6" y1="25.9" y2="25.9"/></g></g></svg>